<svg width="944" height="242" viewBox="0 0 944 242" fill="none" xmlns="http://www.w3.org/2000/svg">
<path d="M85.6699 241.637C65.6504 241.637 47.9258 236.363 32.4961 225.816L27.6621 239H0.416016V181.139H33.082C34.3516 188.561 37.8184 195.201 43.4824 201.061C49.1465 206.92 55.6895 209.85 63.1113 209.85C65.9434 209.85 68.3848 209.068 70.4355 207.506C72.584 205.943 73.6582 203.355 73.6582 199.742C73.6582 196.129 71.6074 192.857 67.5059 189.928C63.3066 186.9 57.0566 183.434 48.7559 179.527C38.6973 174.547 30.4941 170.006 24.1465 165.904C17.7012 161.803 12.1348 156.432 7.44727 149.791C2.75977 143.053 0.416016 134.996 0.416016 125.621C0.416016 115.953 3.58984 107.555 9.9375 100.426C16.2852 93.3945 24.6348 88.0723 34.9863 84.459C45.3379 80.8457 56.6172 79.0391 68.8242 79.0391C84.7422 79.0391 99.5371 83.2383 113.209 91.6367L116.871 82.1152H141.188V128.844H112.916C110.475 122.496 106.959 117.516 102.369 113.902C97.7793 110.289 92.4082 108.482 86.2559 108.482C79.0293 108.482 75.416 110.777 75.416 115.367C75.5137 118.492 77.418 121.178 81.1289 123.424C84.8398 125.572 90.8457 128.502 99.1465 132.213C104.322 134.361 109.059 136.51 113.355 138.658C117.652 140.807 121.51 142.857 124.928 144.811C131.764 148.814 137.721 154.479 142.799 161.803C147.877 169.029 150.416 178.062 150.416 188.902C150.416 200.426 147.438 210.094 141.48 217.906C135.523 225.816 127.613 231.773 117.75 235.777C107.887 239.684 97.1934 241.637 85.6699 241.637ZM472.389 139.391V196.666H492.75V239H402.223V139.098C402.223 134.898 400.855 131.188 398.121 127.965C395.387 124.742 392.115 123.131 388.307 123.131C381.178 123.131 376.686 126.695 374.83 133.824C372.877 141.148 371.9 151.402 371.9 164.586V239H301.588V139.098C301.588 134.898 300.221 131.188 297.486 127.965C294.85 124.742 291.627 123.131 287.818 123.131C280.689 123.131 276.197 126.695 274.342 133.824C272.389 141.148 271.412 151.402 271.412 164.586V196.666H271.705V239H180.152V196.666H201.393V127.379H180.152V87.8281L271.412 79.0391V101.012C278.15 93.0039 285.816 87.3398 294.41 84.0195C303.004 80.6992 312.721 79.0391 323.561 79.0391C345.729 79.0391 360.23 88.4629 367.066 107.311C374.293 97.0566 382.594 89.7812 391.969 85.4844C401.344 81.1875 412.037 79.0391 424.049 79.0391C456.275 79.0391 472.389 99.1562 472.389 139.391ZM563.209 66.7344C551.002 66.7344 540.943 63.8535 533.033 58.0918C525.123 52.3301 521.168 44.0293 521.168 33.1895C521.168 22.3496 525.123 14.1465 533.033 8.58008C540.943 3.01367 551.1 0.230469 563.502 0.230469C575.904 0.230469 585.963 2.96484 593.678 8.43359C601.49 13.9023 605.396 22.1543 605.396 33.1895C605.396 44.0293 601.393 52.3301 593.385 58.0918C585.475 63.8535 575.416 66.7344 563.209 66.7344ZM617.115 194.908V239H509.156V194.908H528.053V127.379H509.156V91.3438L598.219 82.1152V194.908H617.115ZM758.619 194.908V239H640.113V194.908H665.895V59.8496H640.113V20.0059L736.061 10.3379V194.908H758.619ZM868.189 241.637C850.025 241.637 834.254 238.268 820.875 231.529C807.398 224.889 797.047 215.367 789.82 202.965C782.691 190.562 779.127 176.061 779.127 159.459C779.127 143.053 782.643 128.795 789.674 116.686C796.607 104.674 806.422 95.3965 819.117 88.8535C831.812 82.3105 846.705 79.0391 863.795 79.0391C879.518 79.0391 893.385 82.1152 905.396 88.2676C917.408 94.5176 926.686 103.355 933.229 114.781C939.869 126.207 943.189 139.537 943.189 154.771C943.189 160.045 942.408 165.025 940.846 169.713H849.586C849.586 178.893 853.053 186.266 859.986 191.832C866.92 197.301 875.27 200.035 885.035 200.035C892.457 200.035 900.611 198.766 909.498 196.227C918.385 193.59 927.32 189.537 936.305 184.068L938.795 184.947V224.352C928.736 230.113 918.385 234.459 907.74 237.389C897.193 240.221 884.01 241.637 868.189 241.637ZM849.586 139.684V143.932H887.086V140.855C887.086 133.922 885.475 127.965 882.252 122.984C879.127 117.906 874.439 115.367 868.189 115.367C863.014 115.367 858.619 117.955 855.006 123.131C851.393 128.209 849.586 133.727 849.586 139.684Z" fill="#ffcf00"/>
</svg>
