<svg width="525" height="561" viewBox="0 0 525 561" fill="none" xmlns="http://www.w3.org/2000/svg">
<g clip-path="url(#clip0_70_441)">
<path d="M201.858 482.747L195.711 503.682L183.077 499.972L183.737 497.723L193.836 500.688L195.913 493.615L186.468 490.842L187.129 488.593L196.574 491.366L198.663 484.252L188.4 481.238L189.06 478.989L201.858 482.747Z" fill="#616161"/>
<path d="M147.391 478.623C147.01 479.641 147.086 480.623 147.621 481.57C148.156 482.517 149.01 483.293 150.184 483.898C151.043 484.341 151.866 484.589 152.653 484.644C153.434 484.695 154.129 484.57 154.74 484.269C155.344 483.965 155.805 483.504 156.124 482.885C156.391 482.368 156.497 481.859 156.443 481.36C156.379 480.864 156.215 480.391 155.951 479.943C155.683 479.502 155.375 479.091 155.027 478.712C154.676 478.339 154.345 478.013 154.034 477.733L152.338 476.187C151.901 475.794 151.434 475.321 150.936 474.769C150.431 474.213 149.999 473.587 149.639 472.89C149.27 472.196 149.06 471.441 149.009 470.624C148.959 469.807 149.168 468.944 149.637 468.035C150.177 466.987 150.94 466.181 151.925 465.619C152.904 465.053 154.046 464.79 155.351 464.832C156.65 464.87 158.044 465.273 159.534 466.041C160.923 466.757 162.01 467.601 162.795 468.574C163.574 469.543 164.047 470.578 164.215 471.679C164.376 472.777 164.221 473.875 163.75 474.975L161.326 473.725C161.64 472.96 161.707 472.227 161.525 471.526C161.333 470.828 160.966 470.192 160.424 469.616C159.872 469.044 159.211 468.559 158.441 468.162C157.544 467.7 156.664 467.431 155.801 467.353C154.935 467.282 154.159 467.401 153.472 467.71C152.782 468.026 152.255 468.537 151.89 469.244C151.558 469.888 151.468 470.505 151.619 471.094C151.771 471.684 152.075 472.256 152.532 472.811C152.989 473.366 153.51 473.914 154.094 474.455L156.128 476.367C157.419 477.584 158.298 478.824 158.765 480.088C159.232 481.351 159.129 482.637 158.455 483.943C157.896 485.029 157.114 485.825 156.11 486.33C155.097 486.839 153.976 487.06 152.748 486.994C151.51 486.931 150.272 486.58 149.035 485.943C147.785 485.298 146.789 484.501 146.048 483.552C145.304 482.609 144.846 481.606 144.675 480.543C144.497 479.476 144.645 478.446 145.118 477.451L147.391 478.623Z" fill="#616161"/>
<path d="M111.79 461.484L125.277 444.333L127.354 445.966L113.867 463.117L111.79 461.484Z" fill="#616161"/>
<path d="M81.5933 422.145C81.2046 422.792 80.9212 423.446 80.743 424.108C80.5547 424.769 80.4797 425.431 80.5179 426.093C80.5515 426.75 80.704 427.398 80.9755 428.037C81.247 428.675 81.6409 429.293 82.1572 429.888C83.0037 430.865 84.0257 431.535 85.2232 431.898C86.4208 432.26 87.7153 432.252 89.1069 431.873C90.4984 431.494 91.9081 430.686 93.3358 429.449C94.7636 428.212 95.7617 426.929 96.33 425.6C96.8983 424.271 97.0813 422.98 96.8789 421.727C96.6765 420.474 96.1334 419.338 95.2497 418.318C94.4311 417.373 93.509 416.716 92.4832 416.345C91.4473 415.974 90.3847 415.908 89.2951 416.148C88.1955 416.386 87.1412 416.943 86.1321 417.817L85.7307 417.093L90.0282 422.053L88.257 423.588L82.8153 417.308L84.5866 415.773C85.9446 414.596 87.3766 413.863 88.8826 413.573C90.384 413.278 91.8506 413.398 93.2825 413.933C94.7044 414.468 95.9828 415.39 97.1176 416.7C98.3827 418.159 99.1508 419.74 99.4218 421.441C99.6882 423.137 99.4555 424.842 98.7236 426.557C97.9871 428.266 96.7493 429.875 95.0102 431.382C93.7059 432.512 92.3819 433.354 91.0383 433.907C89.6847 434.46 88.3611 434.733 87.0677 434.726C85.7742 434.719 84.5501 434.445 83.3956 433.904C82.241 433.363 81.2055 432.564 80.2893 431.507C79.5358 430.637 78.965 429.713 78.5769 428.734C78.1788 427.753 77.9627 426.761 77.9288 425.757C77.8849 424.752 78.021 423.765 78.337 422.795C78.6477 421.831 79.1378 420.927 79.8073 420.084L81.5933 422.145Z" fill="#616161"/>
<path d="M51.3135 388.472L70.2086 377.563L71.487 379.777L62.596 398.639L62.7025 398.823L77.5381 390.258L78.8591 392.546L59.964 403.455L58.6856 401.241L67.5922 382.321L67.4857 382.137L52.6132 390.723L51.3135 388.472Z" fill="#616161"/>
<path d="M81.6183 168.802L63.8457 156.146L68.2703 149.933C69.1519 148.695 70.0931 147.826 71.0939 147.327C72.0889 146.823 73.0851 146.63 74.0826 146.748C75.0744 146.861 76.0041 147.227 76.8719 147.844C77.6356 148.388 78.1694 148.973 78.4733 149.599C78.7813 150.22 78.9234 150.853 78.8996 151.499C78.8799 152.139 78.7582 152.762 78.5345 153.37L78.7081 153.494C79.13 152.975 79.7103 152.564 80.4488 152.262C81.1872 151.959 82.0123 151.854 82.9239 151.945C83.8355 152.036 84.76 152.415 85.6972 153.083C86.5881 153.717 87.2452 154.49 87.6684 155.402C88.0916 156.314 88.2005 157.354 87.995 158.525C87.7894 159.695 87.1882 160.98 86.1912 162.38L81.6183 168.802ZM81.2417 165.29L84.282 161.021C85.2831 159.615 85.7219 158.423 85.5983 157.446C85.473 156.459 85.0198 155.687 84.2388 155.131C83.6371 154.702 82.9726 154.46 82.2451 154.404C81.5119 154.344 80.7901 154.488 80.0797 154.837C79.3636 155.181 78.7295 155.741 78.1774 156.517L75.0629 160.89L81.2417 165.29ZM73.1885 159.556L76.0311 155.564C76.4925 154.916 76.7813 154.241 76.8975 153.539C77.0179 152.831 76.9558 152.159 76.7113 151.523C76.471 150.881 76.0384 150.337 75.4136 149.892C74.6325 149.336 73.7765 149.137 72.8454 149.293C71.9085 149.446 71.0199 150.112 70.1795 151.292L67.2874 155.353L73.1885 159.556Z" fill="#616161"/>
<path d="M108.11 136.525L93.0541 120.734L94.9662 118.911L108.405 133.005L115.745 126.006L117.363 127.703L108.11 136.525Z" fill="#616161"/>
<path d="M131.63 89.9977L143.425 108.352L141.203 109.781L129.407 91.426L131.63 89.9977Z" fill="#616161"/>
<path d="M175.786 74.0185C175.266 73.0638 174.474 72.4784 173.408 72.2625C172.342 72.0465 171.196 72.184 169.97 72.6749C169.073 73.0339 168.346 73.4931 167.79 74.0525C167.24 74.6092 166.879 75.2166 166.706 75.8748C166.54 76.5303 166.587 77.1812 166.845 77.8273C167.062 78.368 167.377 78.7814 167.789 79.0674C168.206 79.3443 168.671 79.5294 169.182 79.6229C169.691 79.7098 170.203 79.7459 170.718 79.7313C171.229 79.71 171.693 79.6736 172.108 79.6221L174.387 79.3524C174.97 79.2797 175.633 79.2359 176.377 79.2212C177.128 79.2038 177.884 79.2874 178.646 79.4718C179.413 79.647 180.121 79.9831 180.771 80.4801C181.422 80.9771 181.937 81.7004 182.317 82.6498C182.755 83.7443 182.864 84.8482 182.645 85.9614C182.431 87.0719 181.882 88.1067 180.996 89.0658C180.116 90.0222 178.898 90.8119 177.342 91.4349C175.892 92.0156 174.542 92.2844 173.293 92.2412C172.051 92.1954 170.959 91.8753 170.017 91.2807C169.081 90.6836 168.353 89.847 167.83 88.7709L170.362 87.7573C170.734 88.4958 171.245 89.0258 171.894 89.3474C172.546 89.6598 173.268 89.7994 174.058 89.7662C174.852 89.7237 175.651 89.5415 176.455 89.2195C177.392 88.8446 178.172 88.3564 178.795 87.7548C179.416 87.1467 179.835 86.4818 180.051 85.7604C180.264 85.0323 180.223 84.299 179.928 83.5605C179.658 82.888 179.251 82.416 178.707 82.1444C178.162 81.8729 177.53 81.728 176.811 81.7098C176.092 81.6915 175.337 81.726 174.546 81.8133L171.769 82.099C170.004 82.2776 168.491 82.1296 167.23 81.6552C165.969 81.1808 165.066 80.2611 164.519 78.8963C164.065 77.7622 163.976 76.6504 164.251 75.561C164.531 74.4623 165.097 73.4703 165.952 72.5851C166.81 71.6907 167.885 70.9848 169.178 70.4674C170.483 69.9448 171.737 69.7143 172.94 69.7759C174.14 69.8309 175.198 70.1419 176.114 70.7087C177.036 71.2729 177.718 72.0594 178.16 73.0682L175.786 74.0185Z" fill="#616161"/>
<path d="M366.438 109.985L363.146 94.8511C362.884 93.6439 362.943 92.4747 363.324 91.3434C363.711 90.2159 364.336 89.2499 365.199 88.4454C366.066 87.6349 367.094 87.1054 368.284 86.8568C369.503 86.6019 370.667 86.6621 371.777 87.0375C372.896 87.4107 373.855 88.027 374.654 88.8863C375.458 89.7495 376 90.7856 376.278 91.9945L376.737 93.9608L378.716 93.5611C379.937 93.316 381.104 93.3781 382.218 93.7475C383.331 94.1169 384.287 94.7313 385.086 95.5906C385.894 96.4478 386.436 97.4838 386.71 98.6987C386.978 99.8841 386.924 101.04 386.547 102.165C386.174 103.284 385.551 104.252 384.681 105.069C383.816 105.889 382.78 106.43 381.573 106.693L366.438 109.985Z" fill="#616161"/>
<path d="M418.635 157.988L436.407 145.332L443.996 155.989L442.087 157.348L436.031 148.844L430.025 153.12L435.513 160.826L433.604 162.186L428.116 154.48L420.167 160.14L418.635 157.988Z" fill="#616161"/>
<path d="M435.996 380.592L454.891 391.501L448.307 402.905L446.277 401.733L451.54 392.618L445.156 388.932L440.234 397.457L438.204 396.285L443.126 387.76L436.705 384.052L431.357 393.315L429.327 392.143L435.996 380.592Z" fill="#616161"/>
<path d="M420.117 439.761L403.628 425.473L405.303 423.541L426.035 425.774L426.174 425.613L413.228 414.395L414.958 412.398L431.447 426.686L429.773 428.618L408.98 426.389L408.841 426.55L421.82 437.796L420.117 439.761Z" fill="#616161"/>
<path d="M382.749 444.276L388.041 440.114L401.528 457.265L396.001 461.611C394.338 462.919 392.644 463.696 390.921 463.94C389.201 464.189 387.524 463.923 385.887 463.141C384.256 462.364 382.742 461.088 381.345 459.313C379.941 457.526 379.049 455.738 378.672 453.948C378.298 452.163 378.448 450.446 379.12 448.797C379.797 447.153 381.007 445.646 382.749 444.276ZM387.413 443.59L384.332 446.013C382.914 447.129 381.953 448.326 381.451 449.607C380.949 450.887 380.867 452.212 381.204 453.583C381.54 454.953 382.258 456.336 383.355 457.732C384.444 459.117 385.607 460.131 386.846 460.774C388.088 461.424 389.369 461.663 390.69 461.492C392.014 461.327 393.347 460.717 394.687 459.663L398.003 457.056L387.413 443.59Z" fill="#616161"/>
<path d="M235.745 488.53L242.447 489.17L240.374 510.89L233.374 510.221C231.267 510.02 229.506 509.413 228.09 508.4C226.674 507.395 225.643 506.044 224.999 504.349C224.354 502.66 224.139 500.692 224.353 498.444C224.569 496.181 225.158 494.272 226.12 492.716C227.082 491.167 228.375 490.027 230 489.298C231.624 488.575 233.539 488.32 235.745 488.53ZM239.595 491.252L235.692 490.88C233.896 490.708 232.375 490.912 231.128 491.492C229.881 492.073 228.907 492.975 228.205 494.199C227.503 495.423 227.067 496.919 226.899 498.687C226.731 500.44 226.873 501.977 227.325 503.297C227.776 504.625 228.539 505.682 229.612 506.469C230.685 507.264 232.07 507.742 233.767 507.904L237.966 508.305L239.595 491.252Z" fill="#616161"/>
<path d="M49.722 310.984L40.4403 323.383C39.6999 324.372 38.7775 325.093 37.6731 325.546C36.5676 325.992 35.4283 326.152 34.255 326.027C33.0747 325.902 32.0011 325.472 31.0342 324.735C30.0432 323.981 29.3262 323.062 28.8833 321.977C28.4323 320.887 28.2701 319.759 28.3966 318.592C28.5221 317.419 28.9505 316.331 29.6818 315.329L30.8675 313.695L29.2694 312.461C28.2844 311.699 27.5669 310.776 27.117 309.692C26.667 308.609 26.5053 307.484 26.6318 306.318C26.7503 305.146 27.1787 304.058 27.917 303.055C28.6373 302.076 29.5461 301.361 30.6436 300.909C31.734 300.458 32.8728 300.294 34.0601 300.417C35.2465 300.534 36.3341 300.962 37.3231 301.703L49.722 310.984Z" fill="#616161"/>
<path d="M51.6494 240.799L30.4463 235.656L32.1843 228.491C32.5879 226.828 33.218 225.541 34.0746 224.631C34.9261 223.712 35.9211 223.12 37.0596 222.855C38.1981 222.591 39.392 222.61 40.6412 222.913C41.8905 223.216 42.964 223.747 43.8616 224.505C44.7608 225.257 45.3861 226.235 45.7373 227.438C46.0816 228.64 46.0536 230.065 45.6534 231.715L44.4076 236.85L42.13 236.298L43.3556 231.245C43.6319 230.106 43.6571 229.144 43.4311 228.359C43.2051 227.573 42.7951 226.944 42.2009 226.471C41.6015 225.989 40.8774 225.645 40.0284 225.439C39.1795 225.233 38.3817 225.208 37.6352 225.363C36.8903 225.511 36.2435 225.888 35.6948 226.493C35.1392 227.096 34.7216 227.974 34.4419 229.127L33.3469 233.641L52.2723 238.232L51.6494 240.799Z" fill="#616161"/>
<path d="M49.1802 181.567L50.2778 179.163L63.4183 185.164C64.775 185.784 65.8403 186.657 66.6142 187.783C67.3846 188.9 67.8126 190.177 67.8982 191.614C67.9774 193.048 67.6614 194.543 66.9504 196.1C66.2393 197.657 65.3161 198.875 64.1807 199.754C63.0388 200.63 61.7921 201.146 60.4405 201.302C59.0854 201.448 57.7295 201.212 56.3728 200.592L43.2322 194.591L44.3298 192.188L57.2765 198.1C58.2456 198.543 59.2054 198.723 60.156 198.642C61.1002 198.558 61.9686 198.221 62.7614 197.63C63.5507 197.03 64.1976 196.178 64.7021 195.073C65.2066 193.969 65.4272 192.922 65.3637 191.932C65.2937 190.94 64.9799 190.063 64.4223 189.3C63.8611 188.529 63.096 187.922 62.127 187.479L49.1802 181.567Z" fill="#616161"/>
<path d="M207.733 81.3893L203.604 59.9654L206.198 59.4653L208.037 69.0057L219.46 66.804L217.622 57.2637L220.216 56.7637L224.345 78.1876L221.751 78.6876L219.904 69.1054L208.481 71.3071L210.327 80.8892L207.733 81.3893Z" fill="#616161"/>
<path d="M247.698 77L247.698 55.1818L260.865 55.1818V57.5256H250.34L250.34 64.8977H260.184V67.2415H250.34V74.6562H261.036V77H247.698Z" fill="#616161"/>
<path d="M286.235 78.6939L290.364 57.27L297.603 58.6651C299.277 58.9877 300.596 59.5385 301.56 60.3173C302.525 61.0892 303.17 62.02 303.495 63.1098C303.82 64.1995 303.861 65.3756 303.618 66.6378C303.375 67.9001 302.901 68.9697 302.197 69.8466C301.492 70.7235 300.553 71.338 299.378 71.6903C298.205 72.0356 296.789 72.0483 295.129 71.7284L289.271 70.5993L289.722 68.2561L295.497 69.369C296.641 69.5895 297.593 69.5995 298.355 69.3992C299.124 69.2002 299.725 68.8241 300.157 68.2709C300.597 67.712 300.9 67.0037 301.065 66.1459C301.231 65.2881 301.215 64.5075 301.018 63.8041C300.821 63.1006 300.403 62.5067 299.766 62.0222C299.13 61.5308 298.234 61.1735 297.076 60.9504L292.515 60.0714L288.83 79.1939L286.235 78.6939ZM298.174 71.0134L301.592 81.6536L298.579 81.0729L295.245 70.4489L298.174 71.0134Z" fill="#616161"/>
<path d="M438.952 190.686L458.799 181.622L461.861 188.328C462.569 189.879 462.886 191.272 462.81 192.509C462.741 193.743 462.357 194.808 461.658 195.705C460.959 196.602 460.025 197.318 458.856 197.852C457.686 198.386 456.54 198.621 455.417 198.556C454.295 198.491 453.249 198.082 452.281 197.329C451.319 196.574 450.487 195.428 449.785 193.89L447.307 188.463L449.477 187.472L451.92 192.821C452.404 193.881 452.949 194.663 453.554 195.167C454.162 195.678 454.817 195.949 455.518 195.98C456.228 196.015 456.981 195.85 457.776 195.488C458.57 195.125 459.197 194.659 459.656 194.09C460.114 193.522 460.356 192.837 460.381 192.037C460.413 191.234 460.184 190.297 459.694 189.224L457.764 184.999L440.05 193.089L438.952 190.686ZM452.134 195.956L445.449 204.912L444.174 202.121L450.895 193.243L452.134 195.956Z" fill="#616161"/>
<path d="M467.829 242.035C465.593 242.577 463.562 242.642 461.738 242.23C459.913 241.817 458.388 241.014 457.163 239.821C455.938 238.627 455.106 237.126 454.667 235.318C454.229 233.509 454.28 231.794 454.822 230.172C455.364 228.549 456.351 227.137 457.784 225.934C459.217 224.731 461.052 223.859 463.288 223.316C465.524 222.774 467.555 222.709 469.38 223.121C471.205 223.533 472.73 224.336 473.955 225.53C475.18 226.724 476.011 228.225 476.45 230.033C476.889 231.842 476.837 233.557 476.295 235.179C475.754 236.802 474.766 238.214 473.333 239.417C471.9 240.619 470.066 241.492 467.829 242.035ZM467.226 239.55C469.062 239.104 470.537 238.421 471.651 237.501C472.767 236.587 473.523 235.53 473.919 234.331C474.317 233.138 474.36 231.9 474.048 230.616C473.737 229.332 473.13 228.248 472.229 227.363C471.329 226.485 470.173 225.892 468.761 225.584C467.35 225.283 465.727 225.356 463.891 225.801C462.055 226.246 460.579 226.926 459.463 227.84C458.349 228.76 457.594 229.817 457.196 231.01C456.8 232.209 456.758 233.451 457.069 234.735C457.381 236.019 457.986 237.1 458.886 237.978C459.788 238.862 460.944 239.455 462.354 239.756C463.766 240.064 465.39 239.995 467.226 239.55Z" fill="#616161"/>
<path d="M482.531 281.749L460.737 282.787L460.616 280.233L477.161 267.543L477.151 267.33L460.04 268.145L459.914 265.506L481.707 264.468L481.829 267.022L465.243 279.757L465.253 279.97L482.407 279.153L482.531 281.749Z" fill="#616161"/>
<path d="M478.841 306.876L481.161 307.209L478.832 323.407L476.513 323.073L477.489 316.282L458.213 313.511L458.589 310.895L477.865 313.667L478.841 306.876Z" fill="#616161"/>
<path d="M457.529 358.309L455.315 357.543L458.437 348.522L460.651 349.289L457.529 358.309Z" fill="#616161"/>
<path d="M310.938 480.97L324.532 488.393C325.616 488.985 326.461 489.795 327.066 490.824C327.665 491.855 327.986 492.959 328.029 494.139C328.073 495.325 327.8 496.449 327.209 497.51C326.603 498.599 325.795 499.439 324.785 500.032C323.77 500.634 322.676 500.955 321.504 500.995C320.325 501.038 319.187 500.769 318.091 500.188L316.305 499.247L315.311 501.004C314.696 502.088 313.885 502.929 312.876 503.529C311.868 504.128 310.778 504.448 309.605 504.489C308.428 504.539 307.291 504.269 306.193 503.681C305.121 503.108 304.284 502.31 303.68 501.288C303.079 500.273 302.755 499.169 302.708 497.976C302.654 496.785 302.923 495.648 303.516 494.563L310.938 480.97Z" fill="#616161"/>
</g>
<defs>
<clipPath id="clip0_70_441">
<rect width="525" height="561" fill="white"/>
</clipPath>
</defs>
</svg>
