<svg width="214" height="39" viewBox="0 0 214 39" fill="none" xmlns="http://www.w3.org/2000/svg">
<mask id="path-1-outside-1_62_2" maskUnits="userSpaceOnUse" x="-1" y="-1" width="216" height="41" fill="black">
<rect fill="white" x="-1" y="-1" width="216" height="41"/>
<path d="M0.271484 38V2.64844H13.5527C21.6582 2.64844 26.0039 7.58008 26.0039 14.3672C26.0039 21.1543 21.6094 26.0371 13.4551 26.0371H6.61914V38H0.271484ZM6.61914 20.8125H12.5762C17.3613 20.8125 19.5098 18.127 19.5098 14.3672C19.5098 10.5586 17.3613 7.9707 12.5762 7.9707H6.61914V20.8125ZM47.7812 26.8672V11.4863H53.9824V38H47.9766V33.3125H47.6836C46.4629 36.2422 43.6797 38.3418 39.7246 38.3418C34.5 38.3418 30.8867 34.7285 30.8379 28.3809V11.4863H37.0879V27.4043C37.0879 30.7734 39.0898 32.9219 42.1172 32.9219C44.8516 32.9219 47.7812 30.9199 47.7812 26.8672ZM60.2324 38V2.64844H66.4824V15.832H66.7266C67.7031 13.9277 69.6074 11.1445 74.2949 11.1445C80.4473 11.1445 85.2812 15.9297 85.2812 24.7676C85.2812 33.5078 80.5449 38.4883 74.3438 38.4883C69.7539 38.4883 67.7031 35.7539 66.7266 33.8008H66.3359V38H60.2324ZM66.3359 24.7188C66.3359 29.8945 68.582 33.3613 72.5859 33.3613C76.7363 33.3613 78.9336 29.748 78.9336 24.7188C78.9336 19.7871 76.7852 16.2227 72.5859 16.2227C68.582 16.2227 66.3359 19.5918 66.3359 24.7188ZM96.4141 2.64844V38H90.1641V2.64844H96.4141ZM102.371 38V11.4863H108.621V38H102.371ZM105.545 7.72656C103.592 7.72656 101.932 6.21289 101.932 4.30859C101.932 2.45312 103.592 0.939453 105.545 0.939453C107.547 0.939453 109.158 2.45312 109.158 4.30859C109.158 6.21289 107.547 7.72656 105.545 7.72656ZM129.617 19.0547C129.227 17.0527 127.566 15.7832 124.93 15.7832C122.244 15.7832 120.291 17.1016 120.34 18.9082C120.291 20.2754 121.414 21.3008 124.1 21.9355L128.592 22.8633C133.621 23.9863 136.014 26.2812 136.062 30.0898C136.014 35.0703 131.668 38.5371 124.734 38.5371C117.996 38.5371 113.992 35.5098 113.357 30.4316H119.705C120.096 32.6777 121.854 33.8008 124.734 33.8008C127.713 33.8008 129.715 32.5801 129.715 30.627C129.715 29.1133 128.494 28.1367 125.857 27.5508L121.609 26.623C116.678 25.6465 114.139 23.0586 114.139 19.25C114.139 14.3672 118.338 11.1445 124.832 11.1445C131.18 11.1445 135.086 14.2207 135.525 19.0547H129.617ZM147.049 22.4727V38H140.799V2.64844H146.902V15.9785H147.244C148.465 13 151.004 11.1445 155.105 11.1445C160.623 11.1445 164.236 14.709 164.236 21.1055V38H158.035V22.082C158.035 18.4688 156.082 16.418 152.811 16.418C149.441 16.418 147.049 18.6152 147.049 22.4727ZM181.912 38.5371C173.904 38.5371 169.021 33.2148 169.021 24.9141C169.021 16.7109 174.002 11.1445 181.57 11.1445C188.064 11.1445 193.68 15.1973 193.68 24.5234V26.4766H175.174C175.247 30.9932 177.908 33.6543 181.961 33.6543C184.695 33.6543 186.551 32.4824 187.332 30.9199H193.436C192.312 35.5098 188.064 38.5371 181.912 38.5371ZM175.223 22.2285H187.723C187.674 18.6152 185.281 15.9785 181.668 15.9785C177.908 15.9785 175.418 18.835 175.223 22.2285ZM198.514 38V11.4863H204.568V15.8809H204.861C205.789 12.8535 208.377 11.0957 211.404 11.0957C212.088 11.0957 213.064 11.1445 213.65 11.2422V17.0039C213.113 16.8086 211.795 16.6133 210.77 16.6133C207.303 16.6133 204.764 19.0059 204.764 22.375V38H198.514Z"/>
</mask>
<path d="M0.271484 38H-0.728516V39H0.271484V38ZM0.271484 2.64844V1.64844H-0.728516V2.64844H0.271484ZM6.61914 26.0371V25.0371H5.61914V26.0371H6.61914ZM6.61914 38V39H7.61914V38H6.61914ZM6.61914 20.8125H5.61914V21.8125H6.61914V20.8125ZM6.61914 7.9707V6.9707H5.61914V7.9707H6.61914ZM1.27148 38V2.64844H-0.728516V38H1.27148ZM0.271484 3.64844H13.5527V1.64844H0.271484V3.64844ZM13.5527 3.64844C17.3998 3.64844 20.2391 4.81439 22.1139 6.67284C23.9902 8.53282 25.0039 11.1886 25.0039 14.3672H27.0039C27.0039 10.7586 25.8448 7.55507 23.5219 5.25245C21.1975 2.9483 17.8111 1.64844 13.5527 1.64844V3.64844ZM25.0039 14.3672C25.0039 17.5421 23.9804 20.1838 22.0885 22.032C20.1964 23.8805 17.3311 25.0371 13.4551 25.0371V27.0371C17.7333 27.0371 21.1425 25.7523 23.4862 23.4626C25.8301 21.1727 27.0039 17.9793 27.0039 14.3672H25.0039ZM13.4551 25.0371H6.61914V27.0371H13.4551V25.0371ZM5.61914 26.0371V38H7.61914V26.0371H5.61914ZM6.61914 37H0.271484V39H6.61914V37ZM6.61914 21.8125H12.5762V19.8125H6.61914V21.8125ZM12.5762 21.8125C15.1539 21.8125 17.1731 21.0856 18.5464 19.705C19.9169 18.3271 20.5098 16.4329 20.5098 14.3672H18.5098C18.5098 16.0613 18.0284 17.3897 17.1284 18.2945C16.2312 19.1966 14.7836 19.8125 12.5762 19.8125V21.8125ZM20.5098 14.3672C20.5098 12.2794 19.918 10.3923 18.5407 9.0298C17.1636 7.66755 15.1438 6.9707 12.5762 6.9707V8.9707C14.7937 8.9707 16.2407 9.5678 17.1341 10.4516C18.0273 11.3352 18.5098 12.6464 18.5098 14.3672H20.5098ZM12.5762 6.9707H6.61914V8.9707H12.5762V6.9707ZM5.61914 7.9707V20.8125H7.61914V7.9707H5.61914ZM47.7812 11.4863V10.4863H46.7812V11.4863H47.7812ZM53.9824 11.4863H54.9824V10.4863H53.9824V11.4863ZM53.9824 38V39H54.9824V38H53.9824ZM47.9766 38H46.9766V39H47.9766V38ZM47.9766 33.3125H48.9766V32.3125H47.9766V33.3125ZM47.6836 33.3125V32.3125H47.0169L46.7605 32.9279L47.6836 33.3125ZM30.8379 28.3809H29.8379L29.8379 28.3886L30.8379 28.3809ZM30.8379 11.4863V10.4863H29.8379V11.4863H30.8379ZM37.0879 11.4863H38.0879V10.4863H37.0879V11.4863ZM48.7812 26.8672V11.4863H46.7812V26.8672H48.7812ZM47.7812 12.4863H53.9824V10.4863H47.7812V12.4863ZM52.9824 11.4863V38H54.9824V11.4863H52.9824ZM53.9824 37H47.9766V39H53.9824V37ZM48.9766 38V33.3125H46.9766V38H48.9766ZM47.9766 32.3125H47.6836V34.3125H47.9766V32.3125ZM46.7605 32.9279C45.6964 35.4818 43.2794 37.3418 39.7246 37.3418V39.3418C44.08 39.3418 47.2294 37.0026 48.6067 33.6971L46.7605 32.9279ZM39.7246 37.3418C37.3526 37.3418 35.4241 36.5283 34.0759 35.0643C32.7201 33.5919 31.8609 31.3619 31.8379 28.3732L29.8379 28.3886C29.8638 31.7474 30.8356 34.4979 32.6047 36.4191C34.3816 38.3487 36.872 39.3418 39.7246 39.3418V37.3418ZM31.8379 28.3809V11.4863H29.8379V28.3809H31.8379ZM30.8379 12.4863H37.0879V10.4863H30.8379V12.4863ZM36.0879 11.4863V27.4043H38.0879V11.4863H36.0879ZM36.0879 27.4043C36.0879 29.285 36.6489 30.9234 37.7303 32.1025C38.8194 33.2898 40.3556 33.9219 42.1172 33.9219V31.9219C40.8515 31.9219 39.873 31.4797 39.2042 30.7506C38.5279 30.0132 38.0879 28.8928 38.0879 27.4043H36.0879ZM42.1172 33.9219C45.3421 33.9219 48.7812 31.532 48.7812 26.8672H46.7812C46.7812 30.3078 44.3611 31.9219 42.1172 31.9219V33.9219ZM60.2324 38H59.2324V39H60.2324V38ZM60.2324 2.64844V1.64844H59.2324V2.64844H60.2324ZM66.4824 2.64844H67.4824V1.64844H66.4824V2.64844ZM66.4824 15.832H65.4824V16.832H66.4824V15.832ZM66.7266 15.832V16.832H67.3376L67.6164 16.2883L66.7266 15.832ZM66.7266 33.8008L67.621 33.3536L67.3446 32.8008H66.7266V33.8008ZM66.3359 33.8008V32.8008H65.3359V33.8008H66.3359ZM66.3359 38V39H67.3359V38H66.3359ZM61.2324 38V2.64844H59.2324V38H61.2324ZM60.2324 3.64844H66.4824V1.64844H60.2324V3.64844ZM65.4824 2.64844V15.832H67.4824V2.64844H65.4824ZM66.4824 16.832H66.7266V14.832H66.4824V16.832ZM67.6164 16.2883C68.0769 15.3903 68.7177 14.3643 69.7384 13.5594C70.7401 12.7694 72.1681 12.1445 74.2949 12.1445V10.1445C71.7342 10.1445 69.8664 10.9113 68.4999 11.989C67.1524 13.0517 66.3528 14.3694 65.8367 15.3757L67.6164 16.2883ZM74.2949 12.1445C77.097 12.1445 79.5603 13.2265 81.3368 15.2936C83.1226 17.3716 84.2812 20.5264 84.2812 24.7676H86.2812C86.2812 20.1709 85.0229 16.5142 82.8536 13.9901C80.675 11.4551 77.6451 10.1445 74.2949 10.1445V12.1445ZM84.2812 24.7676C84.2812 28.9627 83.1454 32.1467 81.3715 34.2632C79.6086 36.3666 77.1584 37.4883 74.3438 37.4883V39.4883C77.7302 39.4883 80.7489 38.1197 82.9044 35.5479C85.0489 32.9891 86.2812 29.3127 86.2812 24.7676H84.2812ZM74.3438 37.4883C72.2649 37.4883 70.8197 36.8749 69.7891 36.0837C68.7428 35.2805 68.0701 34.2517 67.621 33.3536L65.8321 34.248C66.3596 35.3029 67.2006 36.618 68.5712 37.6702C69.9577 38.7345 71.8328 39.4883 74.3438 39.4883V37.4883ZM66.7266 32.8008H66.3359V34.8008H66.7266V32.8008ZM65.3359 33.8008V38H67.3359V33.8008H65.3359ZM66.3359 37H60.2324V39H66.3359V37ZM65.3359 24.7188C65.3359 27.4334 65.9224 29.8187 67.1409 31.5553C68.3869 33.3312 70.2525 34.3613 72.5859 34.3613V32.3613C70.9154 32.3613 69.6561 31.658 68.7781 30.4066C67.8725 29.1159 67.3359 27.1799 67.3359 24.7188H65.3359ZM72.5859 34.3613C74.9959 34.3613 76.8859 33.2917 78.1365 31.498C79.359 29.7444 79.9336 27.3608 79.9336 24.7188H77.9336C77.9336 27.106 77.4095 29.0436 76.4959 30.3541C75.6102 31.6243 74.3264 32.3613 72.5859 32.3613V34.3613ZM79.9336 24.7188C79.9336 22.1264 79.3716 19.7767 78.152 18.0454C76.903 16.2725 75.0114 15.2227 72.5859 15.2227V17.2227C74.3597 17.2227 75.6419 17.9551 76.517 19.1972C77.4214 20.4811 77.9336 22.3794 77.9336 24.7188H79.9336ZM72.5859 15.2227C70.2639 15.2227 68.3976 16.2185 67.1464 17.9659C65.9231 19.6743 65.3359 22.027 65.3359 24.7188H67.3359C67.3359 22.2836 67.8718 20.3882 68.7725 19.1303C69.6453 17.9113 70.9041 17.2227 72.5859 17.2227V15.2227ZM96.4141 2.64844H97.4141V1.64844H96.4141V2.64844ZM96.4141 38V39H97.4141V38H96.4141ZM90.1641 38H89.1641V39H90.1641V38ZM90.1641 2.64844V1.64844H89.1641V2.64844H90.1641ZM95.4141 2.64844V38H97.4141V2.64844H95.4141ZM96.4141 37H90.1641V39H96.4141V37ZM91.1641 38V2.64844H89.1641V38H91.1641ZM90.1641 3.64844H96.4141V1.64844H90.1641V3.64844ZM102.371 38H101.371V39H102.371V38ZM102.371 11.4863V10.4863H101.371V11.4863H102.371ZM108.621 11.4863H109.621V10.4863H108.621V11.4863ZM108.621 38V39H109.621V38H108.621ZM103.371 38V11.4863H101.371V38H103.371ZM102.371 12.4863H108.621V10.4863H102.371V12.4863ZM107.621 11.4863V38H109.621V11.4863H107.621ZM108.621 37H102.371V39H108.621V37ZM105.545 6.72656C104.08 6.72656 102.932 5.59854 102.932 4.30859H100.932C100.932 6.82724 103.104 8.72656 105.545 8.72656V6.72656ZM102.932 4.30859C102.932 3.07649 104.07 1.93945 105.545 1.93945V-0.0605469C103.113 -0.0605469 100.932 1.82976 100.932 4.30859H102.932ZM105.545 1.93945C107.059 1.93945 108.158 3.06806 108.158 4.30859H110.158C110.158 1.83819 108.034 -0.0605469 105.545 -0.0605469V1.93945ZM108.158 4.30859C108.158 5.60702 107.05 6.72656 105.545 6.72656V8.72656C108.044 8.72656 110.158 6.81876 110.158 4.30859H108.158ZM129.617 19.0547L128.636 19.2462L128.793 20.0547H129.617V19.0547ZM120.34 18.9082L121.339 18.9439L121.34 18.9125L121.339 18.8812L120.34 18.9082ZM124.1 21.9355L123.87 22.9087L123.883 22.912L123.897 22.9149L124.1 21.9355ZM128.592 22.8633L128.81 21.8873L128.802 21.8856L128.794 21.8839L128.592 22.8633ZM136.062 30.0898L137.062 30.0996L137.063 30.0883L137.062 30.077L136.062 30.0898ZM113.357 30.4316V29.4316H112.225L112.365 30.5557L113.357 30.4316ZM119.705 30.4316L120.69 30.2603L120.546 29.4316H119.705V30.4316ZM125.857 27.5508L126.074 26.5746L126.071 26.5738L125.857 27.5508ZM121.609 26.623L121.823 25.6461L121.813 25.644L121.804 25.6421L121.609 26.623ZM135.525 19.0547V20.0547H136.62L136.521 18.9642L135.525 19.0547ZM130.599 18.8632C130.357 17.6259 129.71 16.5795 128.698 15.8549C127.696 15.1386 126.404 14.7832 124.93 14.7832V16.7832C126.092 16.7832 126.948 17.0626 127.534 17.4815C128.108 17.8922 128.486 18.4815 128.636 19.2462L130.599 18.8632ZM124.93 14.7832C123.436 14.7832 122.068 15.1481 121.048 15.8409C120.014 16.543 119.305 17.6182 119.34 18.9352L121.339 18.8812C121.326 18.3915 121.569 17.9043 122.171 17.4955C122.787 17.0775 123.738 16.7832 124.93 16.7832V14.7832ZM119.34 18.8725C119.304 19.8931 119.729 20.7795 120.556 21.466C121.338 22.1151 122.462 22.5761 123.87 22.9087L124.33 20.9624C123.051 20.6602 122.272 20.2911 121.833 19.9271C121.439 19.6004 121.327 19.2905 121.339 18.9439L119.34 18.8725ZM123.897 22.9149L128.39 23.8426L128.794 21.8839L124.302 20.9562L123.897 22.9149ZM128.374 23.8392C130.798 24.3805 132.452 25.1774 133.5 26.1889C134.516 27.1697 135.041 28.4285 135.063 30.1027L137.062 30.077C137.035 27.9426 136.339 26.1496 134.889 24.75C133.471 23.3812 131.415 22.4691 128.81 21.8873L128.374 23.8392ZM135.063 30.08C135.041 32.2523 134.095 34.0773 132.375 35.385C130.634 36.7088 128.045 37.5371 124.734 37.5371V39.5371C128.358 39.5371 131.408 38.632 133.585 36.9773C135.783 35.3064 137.035 32.9078 137.062 30.0996L135.063 30.08ZM124.734 37.5371C121.505 37.5371 119.046 36.8108 117.343 35.5786C115.663 34.3624 114.636 32.5942 114.35 30.3076L112.365 30.5557C112.714 33.3472 114.006 35.6317 116.171 37.1987C118.314 38.7498 121.226 39.5371 124.734 39.5371V37.5371ZM113.357 31.4316H119.705V29.4316H113.357V31.4316ZM118.72 30.603C118.958 31.9709 119.635 33.0649 120.734 33.7924C121.802 34.4996 123.178 34.8008 124.734 34.8008V32.8008C123.41 32.8008 122.466 32.5405 121.838 32.1246C121.24 31.729 120.843 31.1385 120.69 30.2603L118.72 30.603ZM124.734 34.8008C126.343 34.8008 127.792 34.4738 128.874 33.7926C129.988 33.0915 130.715 32.0021 130.715 30.627H128.715C128.715 31.2049 128.441 31.7024 127.809 32.1C127.146 32.5174 126.104 32.8008 124.734 32.8008V34.8008ZM130.715 30.627C130.715 29.5482 130.257 28.6444 129.399 27.9594C128.59 27.3136 127.452 26.8807 126.074 26.5746L125.64 28.527C126.9 28.8068 127.691 29.1551 128.151 29.5226C128.562 29.8507 128.715 30.192 128.715 30.627H130.715ZM126.071 26.5738L121.823 25.6461L121.396 27.6L125.644 28.5278L126.071 26.5738ZM121.804 25.6421C119.46 25.178 117.797 24.3519 116.73 23.2897C115.683 22.2481 115.139 20.9116 115.139 19.25H113.139C113.139 21.397 113.864 23.2587 115.319 24.7074C116.754 26.1354 118.827 27.0916 121.415 27.604L121.804 25.6421ZM115.139 19.25C115.139 17.1269 116.038 15.3927 117.655 14.1621C119.298 12.913 121.739 12.1445 124.832 12.1445V10.1445C121.431 10.1445 118.526 10.9874 116.445 12.5703C114.339 14.1718 113.139 16.4903 113.139 19.25H115.139ZM124.832 12.1445C127.853 12.1445 130.186 12.8767 131.793 14.0859C133.381 15.2811 134.334 16.9955 134.529 19.1452L136.521 18.9642C136.277 16.2799 135.057 14.0392 132.996 12.4878C130.953 10.9504 128.159 10.1445 124.832 10.1445V12.1445ZM135.525 18.0547H129.617V20.0547H135.525V18.0547ZM147.049 38V39H148.049V38H147.049ZM140.799 38H139.799V39H140.799V38ZM140.799 2.64844V1.64844H139.799V2.64844H140.799ZM146.902 2.64844H147.902V1.64844H146.902V2.64844ZM146.902 15.9785H145.902V16.9785H146.902V15.9785ZM147.244 15.9785V16.9785H147.915L148.169 16.3577L147.244 15.9785ZM164.236 38V39H165.236V38H164.236ZM158.035 38H157.035V39H158.035V38ZM146.049 22.4727V38H148.049V22.4727H146.049ZM147.049 37H140.799V39H147.049V37ZM141.799 38V2.64844H139.799V38H141.799ZM140.799 3.64844H146.902V1.64844H140.799V3.64844ZM145.902 2.64844V15.9785H147.902V2.64844H145.902ZM146.902 16.9785H147.244V14.9785H146.902V16.9785ZM148.169 16.3577C148.713 15.0317 149.53 13.9964 150.635 13.2856C151.744 12.5728 153.207 12.1445 155.105 12.1445V10.1445C152.903 10.1445 151.045 10.644 149.554 11.6035C148.058 12.5651 146.996 13.9468 146.319 15.5993L148.169 16.3577ZM155.105 12.1445C157.643 12.1445 159.643 12.9586 161.012 14.4121C162.388 15.8719 163.236 18.0922 163.236 21.1055H165.236C165.236 17.7222 164.278 14.9621 162.468 13.0405C160.651 11.1127 158.085 10.1445 155.105 10.1445V12.1445ZM163.236 21.1055V38H165.236V21.1055H163.236ZM164.236 37H158.035V39H164.236V37ZM159.035 38V22.082H157.035V38H159.035ZM159.035 22.082C159.035 20.1019 158.498 18.4141 157.382 17.2139C156.256 16.0039 154.66 15.418 152.811 15.418V17.418C154.232 17.418 155.249 17.8574 155.918 18.5762C156.595 19.3046 157.035 20.4488 157.035 22.082H159.035ZM152.811 15.418C150.906 15.418 149.193 16.0433 147.955 17.2959C146.716 18.5492 146.049 20.3339 146.049 22.4727H148.049C148.049 20.754 148.577 19.5113 149.378 18.7017C150.178 17.8912 151.346 17.418 152.811 17.418V15.418ZM193.68 26.4766V27.4766H194.68V26.4766H193.68ZM175.174 26.4766V25.4766H174.157L174.174 26.4928L175.174 26.4766ZM187.332 30.9199V29.9199H186.714L186.438 30.4727L187.332 30.9199ZM193.436 30.9199L194.407 31.1576L194.71 29.9199H193.436V30.9199ZM175.223 22.2285L174.224 22.1711L174.163 23.2285H175.223V22.2285ZM187.723 22.2285V23.2285H188.736L188.723 22.215L187.723 22.2285ZM181.912 37.5371C178.138 37.5371 175.196 36.2894 173.193 34.1542C171.183 32.0113 170.021 28.8709 170.021 24.9141H168.021C168.021 29.258 169.302 32.9291 171.735 35.5226C174.175 38.1237 177.678 39.5371 181.912 39.5371V37.5371ZM170.021 24.9141C170.021 21.0129 171.204 17.8252 173.199 15.6248C175.185 13.4336 178.045 12.1445 181.57 12.1445V10.1445C177.527 10.1445 174.113 11.6387 171.717 14.2815C169.329 16.9151 168.021 20.6121 168.021 24.9141H170.021ZM181.57 12.1445C184.613 12.1445 187.368 13.0916 189.359 15.0496C191.343 17.0007 192.68 20.0656 192.68 24.5234H194.68C194.68 19.6551 193.209 16.0305 190.761 13.6237C188.321 11.2238 185.022 10.1445 181.57 10.1445V12.1445ZM192.68 24.5234V26.4766H194.68V24.5234H192.68ZM193.68 25.4766H175.174V27.4766H193.68V25.4766ZM174.174 26.4928C174.214 28.9427 174.96 31.0001 176.354 32.4518C177.753 33.9092 179.709 34.6543 181.961 34.6543V32.6543C180.16 32.6543 178.759 32.0689 177.796 31.0665C176.828 30.0585 176.207 28.5271 176.174 26.4603L174.174 26.4928ZM181.961 34.6543C184.979 34.6543 187.237 33.3459 188.226 31.3671L186.438 30.4727C185.864 31.6189 184.412 32.6543 181.961 32.6543V34.6543ZM187.332 31.9199H193.436V29.9199H187.332V31.9199ZM192.464 30.6823C191.478 34.712 187.731 37.5371 181.912 37.5371V39.5371C188.398 39.5371 193.147 36.3076 194.407 31.1576L192.464 30.6823ZM175.223 23.2285H187.723V21.2285H175.223V23.2285ZM188.723 22.215C188.695 20.1904 188.008 18.376 186.757 17.0596C185.5 15.7369 183.73 14.9785 181.668 14.9785V16.9785C183.219 16.9785 184.453 17.5384 185.307 18.4375C186.168 19.3427 186.701 20.6534 186.723 22.242L188.723 22.215ZM181.668 14.9785C177.31 14.9785 174.446 18.3198 174.224 22.1711L176.221 22.286C176.39 19.3501 178.507 16.9785 181.668 16.9785V14.9785ZM198.514 38H197.514V39H198.514V38ZM198.514 11.4863V10.4863H197.514V11.4863H198.514ZM204.568 11.4863H205.568V10.4863H204.568V11.4863ZM204.568 15.8809H203.568V16.8809H204.568V15.8809ZM204.861 15.8809V16.8809H205.601L205.817 16.1739L204.861 15.8809ZM213.65 11.2422H214.65V10.3951L213.815 10.2558L213.65 11.2422ZM213.65 17.0039L213.309 17.9437L214.65 18.4316V17.0039H213.65ZM204.764 38V39H205.764V38H204.764ZM199.514 38V11.4863H197.514V38H199.514ZM198.514 12.4863H204.568V10.4863H198.514V12.4863ZM203.568 11.4863V15.8809H205.568V11.4863H203.568ZM204.568 16.8809H204.861V14.8809H204.568V16.8809ZM205.817 16.1739C206.609 13.5901 208.791 12.0957 211.404 12.0957V10.0957C207.963 10.0957 204.969 12.1169 203.905 15.5879L205.817 16.1739ZM211.404 12.0957C212.066 12.0957 212.98 12.1442 213.486 12.2286L213.815 10.2558C213.149 10.1449 212.11 10.0957 211.404 10.0957V12.0957ZM212.65 11.2422V17.0039H214.65V11.2422H212.65ZM213.992 16.0641C213.622 15.9294 213.073 15.8205 212.531 15.7449C211.972 15.6669 211.338 15.6133 210.77 15.6133V17.6133C211.226 17.6133 211.765 17.6574 212.255 17.7258C212.763 17.7966 213.142 17.8831 213.309 17.9437L213.992 16.0641ZM210.77 15.6133C206.795 15.6133 203.764 18.41 203.764 22.375H205.764C205.764 19.6017 207.81 17.6133 210.77 17.6133V15.6133ZM203.764 22.375V38H205.764V22.375H203.764ZM204.764 37H198.514V39H204.764V37Z" fill="black" mask="url(#path-1-outside-1_62_2)"/>
</svg>
